<svg class="icon" style="width: 1.0205078125em;height: 1em;vertical-align: middle;fill: currentColor;overflow: hidden;" viewBox="0 0 1045 1024" version="1.1" xmlns="http://www.w3.org/2000/svg" p-id="38921"><path d="M173.411773 241.434684a77.165899 77.165899 0 1 0-77.165899 77.165899 77.165899 77.165899 0 0 0 77.165899-77.165899zM158.229793 829.649914a87.203886 87.203886 0 1 0 87.829885 87.077886 87.203886 87.203886 0 0 0-87.829885-87.077886zM822.480924 856.752879a101.506867 101.506867 0 1 0 203.014734 0 101.506867 101.506867 0 1 0-203.014734 0zM943.310766 115.711849a95.359875 95.359875 0 1 0-95.358876 95.358875 95.359875 95.359875 0 0 0 95.359876-95.359875zM440.448424 706.267076a193.352747 193.352747 0 1 0 147.986806-357.269533 193.352747 193.352747 0 1 0-147.986806 357.269533z" fill="#AACEEC" p-id="38922"></path><path d="M923.988791 736.424036a119.825843 119.825843 0 0 0-76.5389 27.603964L698.263086 633.035172a210.919724 210.919724 0 0 0-40.903946-261.609658l133.377825-157.469794a114.55685 114.55685 0 1 0-29.486961-24.214968L627.622179 348.588544a209.664726 209.664726 0 0 0-112.924853-33.375956A211.797723 211.797723 0 0 0 342.172552 404.299471L182.445761 283.342629a93.979877 93.979877 0 0 0 9.786987-41.907945 96.111874 96.111874 0 1 0-32.497957 71.895906L322.849578 437.423428a210.668724 210.668724 0 0 0 29.98796 227.355702l-138.019819 162.235788a106.525861 106.525861 0 1 0 27.854963 25.094967l136.889821-160.47979a211.671723 211.671723 0 0 0 296.993612-27.477964l146.049809 127.856833a118.822845 118.822845 0 0 0-19.321975 64.743915 120.327843 120.327843 0 1 0 120.327842-120.328843zM847.95189 39.172949a76.5379 76.5379 0 1 1-76.537899 76.5389 76.6639 76.6639 0 0 1 76.537899-76.5389zM96.245874 299.779608a58.344924 58.344924 0 1 1 58.344924-58.344924 58.469923 58.469923 0 0 1-58.344924 58.344924z m61.983919 685.206103a68.382911 68.382911 0 1 1 67.879911-68.38291 68.50791 68.50791 0 0 1-67.879911 68.38291zM514.697326 702.169081a174.532772 174.532772 0 1 1 174.406772-174.406772 174.657771 174.657771 0 0 1-174.406772 174.406772zM923.988791 939.438771a82.686892 82.686892 0 1 1 82.685892-82.685892 82.811892 82.811892 0 0 1-82.685892 82.685892z" fill="#2081D1" p-id="38923"></path><path d="M142.169814 761.017004h1.755998a18.945975 18.945975 0 0 0 17.063977-20.451973l-32.999956-358.851531a18.819975 18.819975 0 1 0-37.640951 3.387996l32.873957 358.85153a18.819975 18.819975 0 0 0 18.945975 17.063978z m576.169246 92.974878L337.027559 883.728844a18.819975 18.819975 0 0 0 1.505998 37.64195h1.505998l381.185501-29.736961a18.819975 18.819975 0 0 0 17.314978-20.200973 18.569976 18.569976 0 0 0-20.200974-17.439978z m146.175809-576.421245a18.945975 18.945975 0 0 0-16.813978 20.702973l37.64195 372.277513a18.819975 18.819975 0 0 0 18.694976 16.812978h1.882998a18.819975 18.819975 0 0 0 17.439977-20.827973L885.718841 294.258615a19.196975 19.196975 0 0 0-21.203972-16.687978z m-612.432199-43.412943h3.136996l398.751478-67.001913a18.819975 18.819975 0 1 0-6.147992-37.014951l-398.751478 66.625913a18.819975 18.819975 0 0 0 3.010996 37.64195z" fill="#2081D1" p-id="38924"></path></svg>