<svg class="icon" style="width: 1em;height: 1em;vertical-align: middle;fill: currentColor;overflow: hidden;" viewBox="0 0 1024 1024" version="1.1" xmlns="http://www.w3.org/2000/svg" p-id="45113"><path d="M926.016 484.992v-0.992l-0.992-2.016q-26.016-39.008-64.992-66.016-3.008-43.008-20-82.016-20-48-59.008-86.016t-88-58.016q-48-19.008-103.008-19.008-84 0-152 44.992-38.016 26.016-64.992 60.992-20.992-4.992-42.016-4.992-34.016 0-64 12T212.992 318.912q-24.992 24-36.992 52.992-12.992 30.016-12.992 64 0 10.016 0.992 18.016-31.008 19.008-56 48.992-48 59.008-48 135.008 0 44 16 83.008t48 70.016 71.008 46.496 84 15.488h440q50.016 0 94.016-16.992 44-18.016 79.008-52.992 36-35.008 54.016-78.016t18.016-92q0-70.016-38.016-128z" p-id="45114"></path></svg>