<svg class="icon" style="width: 1em;height: 1em;vertical-align: middle;fill: currentColor;overflow: hidden;" viewBox="0 0 1024 1024" version="1.1" xmlns="http://www.w3.org/2000/svg" p-id="22245"><path d="M512 512m-512 0a512 512 0 1 0 1024 0 512 512 0 1 0-1024 0Z" fill="#FF6A00" p-id="22246"></path><path d="M512 864c66.624 0 120.64-46.144 120.64-102.848h-241.28c0 56.704 54.016 102.848 120.64 102.848zM332.416 685.696h359.232v60.992H332.416zM636.864 587.328c8.384-9.024 16.192-18.688 22.848-29.12 8.064-12.672 13.888-26.496 17.408-41.024 20.16-85.824-1.6-130.624-31.808-194.432A944.64 944.64 0 0 0 524.16 160c-11.712 30.912-16.64 63.808-14.4 96.704 0 69.376-49.472 100.032-49.472 96V352.64c3.648-84.224-29.76-89.792-32.96-88a120.32 120.32 0 0 1-35.264 86.464C325.952 441.792 336.64 476.608 346.24 530.496c6.4 22.144 14.848 39.168 24.192 52.928C285.12 571.776 230.4 554.496 230.4 554.496c9.856 54.72 67.776 110.848 67.776 110.848h430.208c30.656-13.12 65.28-94.208 65.28-110.848a855.68 855.68 0 0 1-156.8 32.832z" fill="#FFFFFF" p-id="22247"></path></svg>