<svg class="icon" style="width: 1em;height: 1em;vertical-align: middle;fill: currentColor;overflow: hidden;" viewBox="0 0 1024 1024" version="1.1" xmlns="http://www.w3.org/2000/svg" p-id="44747"><path d="M708.8 894.4H241.6c-132.8 0-240-108.8-240-241.6 0-123.2 92.8-225.6 211.2-240C220.8 254.4 352 129.6 512 129.6c36.8 0 68.8 6.4 99.2 17.6 62.4 22.4 116.8 65.6 155.2 124.8 67.2 11.2 129.6 46.4 174.4 96 54.4 59.2 83.2 134.4 83.2 214.4 0 171.2-140.8 312-315.2 312z m-467.2-80h467.2c129.6 0 235.2-105.6 235.2-235.2 0-59.2-22.4-115.2-62.4-160-36.8-40-89.6-67.2-144-73.6-12.8-1.6-24-9.6-30.4-20.8-27.2-49.6-70.4-88-121.6-105.6-20.8-8-44.8-12.8-72-12.8-123.2 0-222.4 100.8-222.4 224V448c0 22.4-17.6 40-40 40h-8C150.4 489.6 80 561.6 80 652.8s70.4 161.6 161.6 161.6z" p-id="44748"></path></svg>