<svg class="icon" style="width: 1em;height: 1em;vertical-align: middle;fill: currentColor;overflow: hidden;" viewBox="0 0 1024 1024" version="1.1" xmlns="http://www.w3.org/2000/svg" p-id="32636"><path d="M320 768c12.8-12.8 32-12.8 44.8 0l134.4 128c12.8 12.8 12.8 32 0 44.8-12.8 12.8-32 12.8-44.8 0l-134.4-128c-6.4-12.8-12.8-32 0-44.8z" p-id="32637"></path><path d="M320 768l128-140.8c12.8-12.8 32-12.8 44.8 0 12.8 12.8 12.8 32 0 44.8l-128 140.8c-12.8 12.8-32 12.8-44.8 0-6.4-12.8-12.8-32 0-44.8zM972.8 787.2c-12.8-12.8-32-12.8-38.4 0l-128 121.6c-12.8 12.8-12.8 32 0 44.8 12.8 12.8 32 12.8 38.4 0l128-121.6c12.8-12.8 12.8-32 0-44.8z" p-id="32638"></path><path d="M972.8 787.2l-115.2-134.4c-12.8-12.8-32-12.8-38.4 0-12.8 12.8-12.8 32 0 44.8l115.2 134.4c12.8 12.8 32 12.8 38.4 0 12.8-12.8 12.8-32 0-44.8zM768 537.6c12.8 6.4 25.6 25.6 12.8 44.8l-172.8 409.6c-6.4 19.2-25.6 25.6-38.4 19.2-12.8-6.4-25.6-25.6-12.8-44.8l172.8-409.6c6.4-19.2 25.6-25.6 38.4-19.2zM659.2 268.8c0-140.8-108.8-256-249.6-256-134.4 0-249.6 115.2-249.6 256 0 89.6 44.8 172.8 115.2 217.6-140.8 57.6-243.2 192-243.2 358.4 0 19.2 0 57.6 6.4 64H192c19.2 0 32-12.8 32-32s-12.8-32-32-32H102.4c0-179.2 140.8-320 307.2-320 57.6 0 108.8 19.2 153.6 44.8l38.4-51.2c-12.8-6.4-32-19.2-57.6-32 70.4-44.8 115.2-121.6 115.2-217.6z m-428.8 0c0-108.8 83.2-192 185.6-192 102.4 0 185.6 83.2 185.6 192s-83.2 192-185.6 192c-102.4 0-185.6-83.2-185.6-192z" p-id="32639"></path></svg>