<svg class="icon" style="width: 1em;height: 1em;vertical-align: middle;fill: currentColor;overflow: hidden;" viewBox="0 0 1024 1024" version="1.1" xmlns="http://www.w3.org/2000/svg" p-id="27851"><path d="M0.001792 0h1024v1024H0.001792z" fill="#FFFFFF" fill-opacity=".01" p-id="27852"></path><path d="M608.129792 446.6688l-62.8224 16.4352c-5.632 1.5104-5.9904 1.8688-10.8544-3.7376-5.632-6.3488-9.728-10.496-17.5616-14.208-23.552-11.5968-46.3872-8.2176-67.6864 5.632-25.4464 16.4352-38.528 40.7552-38.144 71.04 0.3584 29.9008 20.9408 54.5792 50.4832 58.7008 25.4208 3.3536 46.7456-5.632 63.5648-24.6784 3.3536-4.096 6.3488-8.6016 10.0864-13.824h-72.1664c-7.8336 0-9.728-4.864-7.0912-11.2384 4.864-11.5968 13.824-31.0272 19.072-40.7552a10.0864 10.0864 0 0 1 9.344-5.9904h136.1152c-0.768 10.112-0.768 20.224-2.2528 30.3104a159.4624 159.4624 0 0 1-30.6688 73.2672c-26.9056 35.5328-62.0544 57.6-106.5472 63.5904-36.6592 4.864-70.6816-2.2528-100.608-24.6784-27.6992-20.9408-43.3664-48.64-47.488-83.0208-4.864-40.7552 7.1168-77.4144 31.7952-109.568 26.5472-34.7648 61.696-56.832 104.704-64.6912 35.1488-6.3488 68.7872-2.2272 99.072 18.3296 19.84 13.0816 34.048 31.0272 43.392 52.736 2.2528 3.3536 0.768 5.2224-3.7376 6.3488zM219.982592 522.1888c-1.4848 0-1.8688-1.1264-1.1264-2.2272l5.248-9.3696c0.768-1.1008 2.2272-2.2272 3.7376-2.2272H302.593792c1.5104 0 2.2528 1.1264 2.2528 2.6112l-0.768 8.96c0 1.5104-1.4848 2.6112-2.6112 2.6112l-81.5104-0.3584zM129.486592 487.808C128.001792 487.808 127.617792 487.04 128.385792 485.9136l7.8336-10.0864c0.768-1.1264 2.6112-1.8688 4.096-1.8688h170.5216c1.5104 0 2.2528 1.1264 1.8688 2.2528l-2.9696 8.96c-0.384 1.5104-1.8688 2.2528-3.3792 2.2528l-176.8704 0.3584z m56.4736-34.3808c-1.5104 0-1.8688-0.768-1.1264-1.8688l7.8592-10.112c0.768-1.1264 2.6112-1.8688 4.096-1.8688h133.504c1.4848 0 1.8688 1.1264 1.1264 2.2528l-6.3744 9.728c-0.768 1.1008-2.6112 2.2272-3.7376 2.2272l-135.3472-0.3584z" fill="#2DBCAF" p-id="27853"></path><path d="M820.865792 502.3744c-0.3584-4.864-0.3584-8.6016-1.1008-12.3392-6.7328-37.0176-40.7552-57.9584-76.288-49.7408-34.7904 7.8592-57.216 29.9264-65.4336 65.0752-6.7328 29.184 7.4752 58.7008 34.4064 70.656 20.5568 8.96 41.1136 7.8592 60.928-2.2272 29.568-15.3088 45.6192-39.2704 47.5136-71.424z m-88.9856 151.04c-34.048-0.7424-65.0496-10.496-91.2384-32.896C618.574592 601.4464 604.750592 577.152 600.270592 548.352c-6.7328-42.24 4.864-79.6416 30.2848-112.9216C657.844992 399.5392 690.715392 380.8256 735.259392 372.9664 773.403392 366.2848 809.294592 370.0224 841.832192 392.0896c29.5168 20.1728 47.872 47.488 52.736 83.3792 6.3488 50.4832-8.2432 91.6224-43.008 126.7712-24.704 25.0368-54.9888 40.7552-89.7536 47.872-10.112 1.8432-20.1984 2.2272-29.9264 3.328z" fill="#2DBCAF" p-id="27854"></path></svg>