<svg class="icon" style="width: 1em;height: 1em;vertical-align: middle;fill: currentColor;overflow: hidden;" viewBox="0 0 1024 1024" version="1.1" xmlns="http://www.w3.org/2000/svg" p-id="15413"><path d="M900.3614811 232.86518557l-339.81629553-194.18074112c-29.12711111-16.99081443-65.536-16.99081443-97.09037114 0l-339.81629553 194.18074112c-29.12711111 16.99081443-48.54518557 48.54518557-48.54518557 84.95407331v388.36148224c0 33.98163001 19.41807445 67.96325888 48.54518557 84.95407331l339.81629553 194.18074112c29.12711111 16.99081443 65.536 16.99081443 97.09037114 0l339.81629553-194.18074112c29.12711111-16.99081443 48.54518557-48.54518557 48.54518557-84.95407331V317.81925888c0-33.98163001-19.41807445-65.536-48.54518557-84.95407331z m-228.16236999 490.30636998c-21.84533333 0-48.54518557-9.70903666-65.536-29.1271111L390.63703666 436.75496334v240.29866667c0 26.69985223-19.41807445 46.11792555-46.11792555 46.11792554H342.09185223c-26.69985223 0-46.11792555-21.84533333-46.11792668-46.11792554V346.94636999c0-24.27259221 21.84533333-46.11792555 53.39970446-46.11792554 24.27259221 0 48.54518557 9.70903666 65.536 29.1271111l216.02607332 257.28948111v-240.29866667c0-26.69985223 21.84533333-46.11792555 46.11792668-46.11792554h2.42725888c26.69985223 0 46.11792555 21.84533333 46.11792554 46.11792554v330.10726002c2.42725888 26.69985223-21.84533333 46.11792555-53.39970332 46.11792554z" fill="#1ac807" p-id="15414"></path></svg>