<svg class="icon" style="width: 1em;height: 1em;vertical-align: middle;fill: currentColor;overflow: hidden;" viewBox="0 0 1024 1024" version="1.1" xmlns="http://www.w3.org/2000/svg" p-id="22125"><path d="M512 0.213333C229.248 0.213333 0 229.333333 0 512c0 282.624 229.248 511.786667 512 511.786667S1024 794.666667 1024 512C1024 229.333333 794.752 0.213333 512 0.213333z m0 957.866667c-80.426667 0-145.664-53.76-145.664-119.978667h291.328c0 66.218667-65.194667 119.936-145.664 119.936z m240.64-159.701333H271.36v-87.253334h481.28v87.210667z m-1.749333-132.138667H272.725333c-1.578667-1.834667-3.2-3.626667-4.736-5.504-49.28-59.776-60.885333-91.008-72.106666-122.794667-0.213333-1.066667 59.733333 12.202667 102.186666 21.76 0 0 21.888 5.077333 53.845334 10.88-30.72-35.968-48.938667-81.664-48.938667-128.426666 0-102.570667 78.72-192.213333 50.346667-264.661334 27.648 2.218667 57.173333 58.282667 59.178666 145.92 29.397333-40.533333 41.685333-114.688 41.685334-160.128 0-47.061333 31.018667-101.717333 62.037333-103.594666-27.648 45.568 7.168 84.650667 38.144 181.546666 11.605333 36.394667 10.112 97.664 19.072 136.490667 2.986667-80.682667 16.853333-198.4 68.053333-239.061333-22.613333 51.2 3.370667 115.242667 21.077334 146.048 28.629333 49.664 45.994667 87.296 45.994666 158.464a197.973333 197.973333 0 0 1-47.36 127.786666c33.792-6.357333 57.173333-12.074667 57.173334-12.074666l109.781333-21.376s-15.957333 65.578667-77.269333 128.725333z" fill="#DA4E31" p-id="22126"></path></svg>