<svg class="icon" style="width: 1em;height: 1em;vertical-align: middle;fill: currentColor;overflow: hidden;" viewBox="0 0 1024 1024" version="1.1" xmlns="http://www.w3.org/2000/svg" p-id="6802"><path d="M210.688 288.32c-43.52 0-87.68 16.96-95.04 26.24-1.92 3.84-6.4 34.88 4.16 34.88 3.52 0 5.12 0.64 15.36-4.16 38.4-15.04 62.72-14.72 66.24-14.72 43.2-4.16 68.16 25.28 64.32 63.36v22.4c-36.48-8.64-57.28-8.96-67.52-8.96-53.12-3.2-102.208 24.832-102.208 86.4 0 67.52 60.256 81.92 83.616 80.96 34.88 0.32 68.16-15.36 90.24-42.56 17.6 39.36 28.8 36.8 29.12 36.8 3.2 0 5.76-1.28 8.32-2.88l18.24-12.8c3.2-1.92 5.76-5.12 6.08-8.96-0.32-9.28-16.96-23.68-15.68-56v-99.84a101.728 101.728 0 0 0-25.568-75.2 109.44 109.44 0 0 0-79.68-24.96z m619.936 0c-64 0-100.8 40-99.84 80.64 0 55.68 56.32 73.28 62.72 75.2 54.08 16.96 61.44 17.6 76.48 30.4 12.8 13.12 11.2 38.72-7.68 49.92-5.44 3.2-28.8 17.28-81.6 6.4-17.6-3.52-26.88-7.68-41.28-13.76-3.84-1.28-12.8-3.52-12.8 8.32v15.68c0 7.36 4.48 14.08 11.2 17.28 33.6 16.96 73.92 17.6 82.56 17.6 1.28 0 74.88 0.032 99.52-49.6 5.056-10.24 18.24-47.68-6.4-79.68-20.48-24-38.08-26.56-90.56-42.56-4.48-1.28-43.2-11.2-42.88-38.4-1.92-34.88 45.44-36.8 55.36-36.16 40-0.64 59.84 14.4 70.72 15.36 4.8 0 7.04-2.88 7.04-9.28v-14.72a15.584 15.584 0 0 0-2.88-9.92c-12.8-16.64-61.76-22.72-79.68-22.72z m-485.76 8c-3.52 0.64-6.08 4.16-5.44 7.68 0.64 4.16 1.28 8.32 2.88 12.48l71.68 236.48c1.6 7.68 6.72 16 17.92 14.72h26.24c16 1.6 18.24-13.76 18.56-15.36l47.04-197.12 47.68 197.44c0.32 1.6 2.56 16.96 18.24 15.36h26.56c11.52 1.28 16.96-7.04 18.56-14.72 80.64-259.52 75.2-241.92 75.84-244.48 1.28-13.44-6.4-12.48-7.68-12.16h-28.48c-14.4-1.6-17.28 11.52-17.92 14.72l-53.12 205.12-48-205.12c-2.24-15.68-15.04-15.04-18.24-14.72h-24.64c-14.08-1.28-17.6 9.92-18.56 14.72l-47.68 202.24-51.2-202.24c-1.28-6.4-5.44-16.32-17.92-15.04h-32.32z m-136.128 148.16c23.04 0.32 42.944 3.84 56.704 7.04 0 16 0.576 24.96-2.944 39.36-4.48 15.36-24.288 43.2-71.008 43.84-26.88 1.28-44.48-19.84-42.88-43.84-1.6-38.4 38.08-48 60.16-46.4z m720.576 195.584c-29.856 0.416-65.12 7.104-91.872 25.888-8.256 5.728-6.816 13.664 2.368 12.608 30.08-3.616 97.024-11.744 108.992 3.552 12 15.296-13.248 78.4-24.416 106.624-3.456 8.416 3.84 11.904 11.552 5.504 50.048-41.92 63.04-129.792 52.8-142.4-5.12-6.336-29.568-12.192-59.424-11.776z m-890.368 32c-6.976 0.96-9.984 9.792-2.688 16.8C161.6 806.432 327.232 864 511.136 864c131.168 0 283.424-42.784 388.544-123.424 17.376-13.44 2.56-33.504-15.232-25.6-117.856 52.032-245.888 77.088-362.4 77.088-172.672 0-339.84-36.064-475.04-117.952a12.48 12.48 0 0 0-8.064-2.048z" p-id="6803"></path></svg>