<svg class="icon" style="width: 1em;height: 1em;vertical-align: middle;fill: currentColor;overflow: hidden;" viewBox="0 0 1024 1024" version="1.1" xmlns="http://www.w3.org/2000/svg" p-id="13627"><path d="M43 506q0 92 23 153h347q17-68 17-147 0-75-17-147H60q-17 71-17 141z m698-141H477q17 60 17 147 0 65-17 147h264q41 0 74.5-19.5t53-53Q888 553 888 512t-19.5-74.5q-19.5-33.5-53-53T741 365zM96 294h300Q337 168 272 90q-59 40-104 90-47 54-72 114z m698 0q56 0 105-22 46-21 82-61-71-97-182-153Q684 0 553 0q-64 0-120 14-54 14-109 44 77 82 129 230l341 6zM89 730h301q-50 127-124 198-54-35-99-85-48-52-77-113h-1z m705 0q56 0 105 22 46 21 82 61-70 96-185.5 153.5T553 1024q-59 0-120-17-46-12-109-41 77-82 129-230l341-6z" p-id="13628"></path></svg>